
<svg width="2627px" height="1037px" viewBox="0 0 2627 1037" version="1.1" xmlns="http://www.w3.org/2000/svg" xmlns:xlink="http://www.w3.org/1999/xlink">
    <g id="Page-1" stroke="none" stroke-width="1" fill="none" fill-rule="evenodd">
        <g id="Artboard-Copy" transform="translate(-2782.000000, -390.000000)">
            <g id="Group-9" transform="translate(4774.000000, 872.500000) rotate(-45.000000) translate(-4774.000000, -872.500000) translate(4415.000000, 514.000000)">
                <path d="M617.693976,118 C750.316782,250.347766 750.381533,464.885742 617.88823,597.313764 L629.33555,608.738161 L563.897225,619 L574.180391,553.697386 L587.971889,567.46017 L591.229449,564.155923 C703.933874,447.978042 702.783829,262.618636 587.779314,147.852624 L617.693976,118 Z" id="Path" fill-opacity="0.5" fill="#4880C2"></path>
                <path d="M152.543728,96 L142.263633,161.400682 L128.963528,148.104256 L125.942597,151.174065 C13.2718291,267.526415 14.4215308,453.164184 129.391702,568.102545 L99.4859733,598 C-33.017795,465.532893 -33.1618344,250.850747 99.0538552,118.204894 L87.1249455,106.27725 L152.543728,96 Z" id="Path" fill-opacity="0.55" fill="#FD66DA"></path>
                <path d="M598.921189,617.93204 C466.453901,749.871759 251.776015,750.022481 119.120901,618.384205 L106.307777,631.14391 L96.0299444,566 L161.434336,576.2369 L149.022169,588.599634 L152.069912,591.58658 C268.428861,703.783936 454.077158,702.639065 569.022038,588.151967 L598.921189,617.93204 Z" id="Path" fill-opacity="0.5" fill="#0A4455"></path>
                <path d="M611.769325,85.6116627 L622.050221,151 L556.626336,140.72469 L568.503539,128.853868 L565.482608,125.883985 C449.088978,13.2656526 263.385349,14.4148193 148.406209,129.331485 L118.498147,99.4396741 C250.995708,-32.9858947 465.716942,-33.1463633 598.413775,98.9582682 L611.769325,85.6116627 Z" id="Path" fill-opacity="0.5" fill="#7653A2"></path>
            </g>
            <g id="Group" transform="translate(2782.000000, 394.000000)" fill="#666666" font-family="Lato-Bold, Lato" font-weight="bold">
                <text id="Observe-and-Analyze" font-size="48">
                    <tspan x="0" y="47">Observe and Analyze</tspan>
                </text>
                <text id="UI-Requirements-Pers" font-size="36">
                    <tspan x="0" y="107">UI Requirements</tspan>
                    <tspan x="0" y="151">Persona Development</tspan>
                    <tspan x="0" y="195">Contextual Interviews</tspan>
                    <tspan x="0" y="239">Heuristic Evaluations</tspan>
                    <tspan x="0" y="283">Behavior Observations</tspan>
                </text>
            </g>
            <g id="Group-2" transform="translate(3467.000000, 394.000000)" fill="#666666" font-family="Lato-Bold, Lato" font-weight="bold">
                <text id="Define-Problem" font-size="48">
                    <tspan x="0" y="47">Define Problem</tspan>
                </text>
                <text id="Stakeholder-Discussi" font-size="36">
                    <tspan x="0" y="107">Stakeholder Discussions</tspan>
                    <tspan x="0" y="151">Desired Outcomes </tspan>
                    <tspan x="0" y="195">Workshops</tspan>
                    <tspan x="0" y="239">Project Kickoff</tspan>
                </text>
            </g>
            <g id="Group-3" transform="translate(4080.000000, 394.000000)" fill="#666666" font-family="Lato-Bold, Lato" font-weight="bold">
                <text id="Ideate-Solutions" font-size="48">
                    <tspan x="0" y="47">Ideate Solutions</tspan>
                </text>
                <text id="Design-Brainstorming" font-size="36">
                    <tspan x="0" y="107">Design Brainstorming</tspan>
                    <tspan x="0" y="151">Ideal Workflow Definition</tspan>
                    <tspan x="0" y="195">Technical Feasibility</tspan>
                </text>
            </g>
            <g id="Group-4" transform="translate(5037.000000, 394.000000)" fill="#666666" font-family="Lato-Bold, Lato" font-weight="bold">
                <text id="Prototype" font-size="48">
                    <tspan x="0" y="47">Prototype</tspan>
                </text>
                <text id="Low-fidelity-wirefra" font-size="36">
                    <tspan x="0" y="107">Low fidelity wireframes</tspan>
                    <tspan x="0" y="151">Workflow diagrams</tspan>
                    <tspan x="0" y="195">HTML/CSS prototype</tspan>
                </text>
            </g>
            <g id="Group-5" transform="translate(5037.000000, 1181.000000)" fill="#666666" font-family="Lato-Bold, Lato" font-weight="bold">
                <text id="Test" font-size="48">
                    <tspan x="0" y="47">Test</tspan>
                </text>
                <text id="Usability-Study" font-size="36">
                    <tspan x="1" y="107">Usability Study</tspan>
                </text>
            </g>
            <g id="Group-6" transform="translate(4147.000000, 1181.000000)" fill="#666666" font-family="Lato-Bold, Lato" font-weight="bold">
                <text id="Evaluate-and-Refine" font-size="48">
                    <tspan x="0" y="47">Evaluate and Refine</tspan>
                </text>
                <text id="Research-Findings-De" font-size="36">
                    <tspan x="0" y="107">Research Findings</tspan>
                    <tspan x="0" y="151">Design Recomendations</tspan>
                </text>
            </g>
            <g id="Group-7" transform="translate(3508.000000, 1181.000000)" fill="#666666" font-family="Lato-Bold, Lato" font-weight="bold">
                <text id="Dev-Handoff" font-size="48">
                    <tspan x="0" y="47">Dev Handoff</tspan>
                </text>
                <text id="Fully-annotated-high" font-size="36">
                    <tspan x="0" y="107">Fully annotated high</tspan>
                    <tspan x="0" y="151">fidelity mockups</tspan>
                    <tspan x="0" y="195">Invision/Sketch/Axure </tspan>
                    <tspan x="0" y="239">Protype</tspan>
                </text>
            </g>
            <g id="Group-8" transform="translate(2782.000000, 1181.000000)" fill="#666666" font-family="Lato-Bold, Lato" font-weight="bold">
                <text id="Final-Review" font-size="48">
                    <tspan x="0" y="47">Final Review</tspan>
                </text>
                <text id="In-person-or-video-r" font-size="36">
                    <tspan x="0" y="107">In person or video review </tspan>
                    <tspan x="0" y="151">and demo</tspan>
                </text>
            </g>
            <text id="Release" font-family="Lato-Bold, Lato" font-size="72" font-weight="bold" fill="#666666">
                <tspan x="2889.348" y="961">Release</tspan>
            </text>
            <path d="M3404.82995,392.556356 L3434.31486,427.791216 C3435.8688,429.648202 3435.8688,432.351798 3434.31486,434.208784 L3404.83078,469.442652 C3403.05862,471.560411 3399.90522,471.840572 3397.78746,470.068409 C3396.65219,469.118409 3395.99625,467.714194 3395.99624,466.233883 L3395.99621,454.032127 L3395.99621,454.032127 L3389.58405,454.032127 C3329.63549,453.885658 3292.11967,453.867582 3277.03657,453.977899 C3274.27522,453.998092 3272.02033,451.775949 3272.00013,449.014601 C3272.00004,449.002412 3272,448.990222 3272,448.978033 L3272,415.577618 C3272,412.816194 3274.23858,410.577618 3277,410.577618 L3395.99448,410.577618 L3395.99448,410.577618 L3395.99541,395.764824 C3395.99559,393.003401 3398.2343,390.764966 3400.99573,390.765141 C3402.47593,390.765234 3403.88002,391.421175 3404.82995,392.556356 Z" id="Path-Copy-12" fill-opacity="0.55" fill="#325D79"></path>
            <path d="M4017.82995,392.556356 L4047.31486,427.791216 C4048.8688,429.648202 4048.8688,432.351798 4047.31486,434.208784 L4017.83078,469.442652 C4016.05862,471.560411 4012.90522,471.840572 4010.78746,470.068409 C4009.65219,469.118409 4008.99625,467.714194 4008.99624,466.233883 L4008.99621,454.032127 L4008.99621,454.032127 L4002.58405,454.032127 C3942.63549,453.885658 3905.11967,453.867582 3890.03657,453.977899 C3887.27522,453.998092 3885.02033,451.775949 3885.00013,449.014601 C3885.00004,449.002412 3885,448.990222 3885,448.978033 L3885,415.577618 C3885,412.816194 3887.23858,410.577618 3890,410.577618 L4008.99448,410.577618 L4008.99448,410.577618 L4008.99541,395.764824 C4008.99559,393.003401 4011.2343,390.764966 4013.99573,390.765141 C4015.47593,390.765234 4016.88002,391.421175 4017.82995,392.556356 Z" id="Path-Copy-13" fill-opacity="0.55" fill="#325D79"></path>
            <path d="M4017.82995,1172.55636 L4047.31486,1207.79122 C4048.8688,1209.6482 4048.8688,1212.3518 4047.31486,1214.20878 L4017.83078,1249.44265 C4016.05862,1251.56041 4012.90522,1251.84057 4010.78746,1250.06841 C4009.65219,1249.11841 4008.99625,1247.71419 4008.99624,1246.23388 L4008.99621,1234.03213 L4008.99621,1234.03213 L4002.58405,1234.03213 C3942.63549,1233.88566 3905.11967,1233.86758 3890.03657,1233.9779 C3887.27522,1233.99809 3885.02033,1231.77595 3885.00013,1229.0146 C3885.00004,1229.00241 3885,1228.99022 3885,1228.97803 L3885,1195.57762 C3885,1192.81619 3887.23858,1190.57762 3890,1190.57762 L4008.99448,1190.57762 L4008.99448,1190.57762 L4008.99541,1175.76482 C4008.99559,1173.0034 4011.2343,1170.76497 4013.99573,1170.76514 C4015.47593,1170.76523 4016.88002,1171.42117 4017.82995,1172.55636 Z" id="Path-Copy-14" fill-opacity="0.55" fill="#325D79" transform="translate(3967.500000, 1211.000000) rotate(-180.000000) translate(-3967.500000, -1211.000000) "></path>
            <path d="M3404.82995,1172.55636 L3434.31486,1207.79122 C3435.8688,1209.6482 3435.8688,1212.3518 3434.31486,1214.20878 L3404.83078,1249.44265 C3403.05862,1251.56041 3399.90522,1251.84057 3397.78746,1250.06841 C3396.65219,1249.11841 3395.99625,1247.71419 3395.99624,1246.23388 L3395.99621,1234.03213 L3395.99621,1234.03213 L3389.58405,1234.03213 C3329.63549,1233.88566 3292.11967,1233.86758 3277.03657,1233.9779 C3274.27522,1233.99809 3272.02033,1231.77595 3272.00013,1229.0146 C3272.00004,1229.00241 3272,1228.99022 3272,1228.97803 L3272,1195.57762 C3272,1192.81619 3274.23858,1190.57762 3277,1190.57762 L3395.99448,1190.57762 L3395.99448,1190.57762 L3395.99541,1175.76482 C3395.99559,1173.0034 3398.2343,1170.76497 3400.99573,1170.76514 C3402.47593,1170.76523 3403.88002,1171.42117 3404.82995,1172.55636 Z" id="Path-Copy-15" fill-opacity="0.55" fill="#325D79" transform="translate(3354.500000, 1211.000000) rotate(-180.000000) translate(-3354.500000, -1211.000000) "></path>
            <path d="M3061.82995,1040.55636 L3091.31486,1075.79122 C3092.8688,1077.6482 3092.8688,1080.3518 3091.31486,1082.20878 L3061.83078,1117.44265 C3060.05862,1119.56041 3056.90522,1119.84057 3054.78746,1118.06841 C3053.65219,1117.11841 3052.99625,1115.71419 3052.99624,1114.23388 L3052.99621,1102.03213 L3052.99621,1102.03213 L3046.58405,1102.03213 C2986.63549,1101.88566 2949.11967,1101.86758 2934.03657,1101.9779 C2931.27522,1101.99809 2929.02033,1099.77595 2929.00013,1097.0146 C2929.00004,1097.00241 2929,1096.99022 2929,1096.97803 L2929,1063.57762 C2929,1060.81619 2931.23858,1058.57762 2934,1058.57762 L3052.99448,1058.57762 L3052.99448,1058.57762 L3052.99541,1043.76482 C3052.99559,1041.0034 3055.2343,1038.76497 3057.99573,1038.76514 C3059.47593,1038.76523 3060.88002,1039.42117 3061.82995,1040.55636 Z" id="Path-Copy-16" fill-opacity="0.55" fill="#325D79" transform="translate(3011.500000, 1079.000000) rotate(-90.000000) translate(-3011.500000, -1079.000000) "></path>
            <path d="M3061.82995,748.556356 L3091.31486,783.791216 C3092.8688,785.648202 3092.8688,788.351798 3091.31486,790.208784 L3061.83078,825.442652 C3060.05862,827.560411 3056.90522,827.840572 3054.78746,826.068409 C3053.65219,825.118409 3052.99625,823.714194 3052.99624,822.233883 L3052.99621,810.032127 L3052.99621,810.032127 L3046.58405,810.032127 C2986.63549,809.885658 2949.11967,809.867582 2934.03657,809.977899 C2931.27522,809.998092 2929.02033,807.775949 2929.00013,805.014601 C2929.00004,805.002412 2929,804.990222 2929,804.978033 L2929,771.577618 C2929,768.816194 2931.23858,766.577618 2934,766.577618 L3052.99448,766.577618 L3052.99448,766.577618 L3052.99541,751.764824 C3052.99559,749.003401 3055.2343,746.764966 3057.99573,746.765141 C3059.47593,746.765234 3060.88002,747.421175 3061.82995,748.556356 Z" id="Path-Copy-17" fill-opacity="0.55" fill="#325D79" transform="translate(3011.500000, 787.000000) rotate(-90.000000) translate(-3011.500000, -787.000000) "></path>
        </g>
    </g>
</svg>