
<svg width="1990px" height="2014px" viewBox="0 0 1990 2014" version="1.1" xmlns="http://www.w3.org/2000/svg" xmlns:xlink="http://www.w3.org/1999/xlink">
    <g id="Page-1" stroke="none" stroke-width="1" fill="none" fill-rule="evenodd">
        <g id="Artboard-Copy" transform="translate(-2792.000000, -520.000000)">
            <path d="M4187.40791,892 C4388.09933,1092.5029 4388.19731,1417.52151 4187.70187,1618.146 L4205.02452,1635.45362 L4106,1651 L4121.561,1552.06849 L4142.43098,1572.9187 L4147.36048,1567.91287 C4317.91041,1391.90685 4316.1701,1111.0929 4142.13956,937.225831 L4187.40791,892 Z" id="Path" fill-opacity="0.5" fill="#4880C2"></path>
            <path d="M3211.75004,921.406585 L3270.75004,1002.40659 L3242.28704,1002.40659 L3242.34025,1008.92476 C3246.3141,1254.02062 3446.2371,1451.48319 3692.27996,1451.48319 L3692.27996,1515.48319 C3408.71419,1515.48319 3178.78034,1285.8576 3178.28078,1002.40876 L3152.75004,1002.40659 L3211.75004,921.406585 Z" id="Combined-Shape" fill-opacity="0.5" fill="#C44971" transform="translate(3422.514999, 1218.444887) rotate(-315.000000) translate(-3422.514999, -1218.444887) "></path>
            <path d="M4159,1648.75786 C3958.54392,1848.85187 3633.68269,1849.08045 3432.94238,1649.4436 L3413.55293,1668.79441 L3398,1570 L3496.97317,1585.52484 L3478.19046,1604.27362 L3482.80246,1608.80349 C3658.8826,1778.95709 3939.81482,1777.22083 4113.75512,1603.5947 L4159,1648.75786 Z" id="Path" fill-opacity="0.5" fill="#0A4455"></path>
            <path d="M4178.44244,843.834906 L4194,943 L4094.99733,927.416914 L4112.9705,909.414145 L4108.39908,904.91015 C3932.26646,734.118109 3651.25051,735.860885 3477.25836,910.138478 L3432,864.805863 C3632.50189,663.975034 3957.42872,663.731674 4158.23216,864.075784 L4178.44244,843.834906 Z" id="Path" fill-opacity="0.5" fill="#7653A2"></path>
            <text id="Observe-and-Analyze" font-family="Lato-Bold, Lato" font-size="48" font-weight="bold" fill="#666666">
                <tspan x="2792" y="2297">Observe and Analyze</tspan>
            </text>
            <text id="Define-Problem" font-family="Lato-Bold, Lato" font-size="48" font-weight="bold" fill="#666666">
                <tspan x="2792" y="1722">Define Problem</tspan>
            </text>
            <text id="Ideate-Solutions" font-family="Lato-Bold, Lato" font-size="48" font-weight="bold" fill="#666666">
                <tspan x="2792" y="1227">Ideate Solutions</tspan>
            </text>
            <text id="Prototype" font-family="Lato-Bold, Lato" font-size="48" font-weight="bold" fill="#666666">
                <tspan x="3606" y="885">Prototype</tspan>
            </text>
            <text id="Design-Process" font-family="Lato-Bold, Lato" font-size="72" font-weight="bold" fill="#666666">
                <tspan x="3580.126" y="574">Design Process</tspan>
            </text>
            <text id="Test" font-family="Lato-Bold, Lato" font-size="48" font-weight="bold" fill="#666666">
                <tspan x="4378" y="1231">Test</tspan>
            </text>
            <text id="Evaluate-and-Refine" font-family="Lato-Bold, Lato" font-size="48" font-weight="bold" fill="#666666">
                <tspan x="3606" y="1539">Evaluate and Refine</tspan>
            </text>
            <text id="Dev-Handoff" font-family="Lato-Bold, Lato" font-size="48" font-weight="bold" fill="#666666">
                <tspan x="4379" y="1723">Dev Handoff</tspan>
            </text>
            <text id="Final-Review" font-family="Lato-Bold, Lato" font-size="48" font-weight="bold" fill="#666666">
                <tspan x="4375" y="2297">Final Review</tspan>
            </text>
            <text id="Release" font-family="Lato-Bold, Lato" font-size="72" font-weight="bold" fill="#666666">
                <tspan x="3672.348" y="2526">Release</tspan>
            </text>
            <text id="UI-Requirements-Pers" font-family="Lato-Bold, Lato" font-size="36" font-weight="bold" fill="#666666">
                <tspan x="2792" y="2357">UI Requirements</tspan>
                <tspan x="2792" y="2401">Persona Development</tspan>
                <tspan x="2792" y="2445">Contextual Interviews</tspan>
                <tspan x="2792" y="2489">Heuristic Evaluations</tspan>
                <tspan x="2792" y="2533">Behavior Observations</tspan>
            </text>
            <text id="Stakeholder-Discussi" font-family="Lato-Bold, Lato" font-size="36" font-weight="bold" fill="#666666">
                <tspan x="2792" y="1782">Stakeholder Discussions</tspan>
                <tspan x="2792" y="1826">Desired Outcomes </tspan>
                <tspan x="2792" y="1870">Workshops</tspan>
                <tspan x="2792" y="1914">Project Kickoff</tspan>
            </text>
            <text id="Design-Brainstorming" font-family="Lato-Bold, Lato" font-size="36" font-weight="bold" fill="#666666">
                <tspan x="2792" y="1287">Design Brainstorming</tspan>
                <tspan x="2792" y="1331">Ideal Workflow Definition</tspan>
                <tspan x="2792" y="1375">Technical Feasibility</tspan>
            </text>
            <text id="Low-fidelity-wirefra" font-family="Lato-Bold, Lato" font-size="36" font-weight="bold" fill="#666666">
                <tspan x="3606" y="945">Low fidelity wireframes</tspan>
                <tspan x="3606" y="989">Workflow diagrams</tspan>
                <tspan x="3606" y="1033">HTML/CSS prototype</tspan>
            </text>
            <text id="Usability-Study" font-family="Lato-Bold, Lato" font-size="36" font-weight="bold" fill="#666666">
                <tspan x="4379" y="1291">Usability Study</tspan>
            </text>
            <text id="Research-Findings-De" font-family="Lato-Bold, Lato" font-size="36" font-weight="bold" fill="#666666">
                <tspan x="3606" y="1599">Research Findings</tspan>
                <tspan x="3606" y="1643">Design Recomendations</tspan>
            </text>
            <text id="Fully-annotated-high" font-family="Lato-Bold, Lato" font-size="36" font-weight="bold" fill="#666666">
                <tspan x="4379" y="1783">Fully annotated high</tspan>
                <tspan x="4379" y="1827">fidelity mockups</tspan>
                <tspan x="4379" y="1871">Invision/Sketch/Axure </tspan>
                <tspan x="4379" y="1915">Protype</tspan>
            </text>
            <text id="In-person-or-video-r" font-family="Lato-Bold, Lato" font-size="36" font-weight="bold" fill="#666666">
                <tspan x="4378" y="2357">In person or video review </tspan>
                <tspan x="4378" y="2401">and demo</tspan>
            </text>
            <path d="M3054.47756,1473.50748 L3135.47756,1532.50748 L3054.47756,1591.50748 L3054.47748,1565.53961 L3048.06591,1565.53961 C2945.49252,1565.28897 3006.30852,1565.53961 2870.49252,1565.53961 L2870.49252,1502.0851 L3054.47575,1502.0851 L3054.47756,1473.50748 Z" id="Path-Copy" fill-opacity="0.55" fill="#FD66DA" transform="translate(3002.985038, 1532.507481) rotate(-90.000000) translate(-3002.985038, -1532.507481) "></path>
            <path d="M4638.49252,1474 L4719.49252,1533 L4638.49252,1592 L4638.49244,1566.03213 L4632.08087,1566.03213 C4529.50748,1565.78149 4590.32348,1566.03213 4454.50748,1566.03213 L4454.50748,1502.57762 L4638.49071,1502.57762 L4638.49252,1474 Z" id="Path-Copy-7" fill="#B8B7CE" transform="translate(4587.000000, 1533.000000) rotate(-270.000000) translate(-4587.000000, -1533.000000) "></path>
            <path d="M4638.49252,2027 L4719.49252,2086 L4638.49252,2145 L4638.49244,2119.03213 L4632.08087,2119.03213 C4529.50748,2118.78149 4590.32348,2119.03213 4454.50748,2119.03213 L4454.50748,2055.57762 L4638.49071,2055.57762 L4638.49252,2027 Z" id="Path-Copy-8" fill="#4880C2" transform="translate(4587.000000, 2086.000000) rotate(-270.000000) translate(-4587.000000, -2086.000000) "></path>
            <path d="M4210.98504,2408 L4291.98504,2467 L4210.98504,2526 L4210.98496,2500.03213 L4204.57339,2500.03213 C4102,2499.78149 4162.816,2500.03213 4027,2500.03213 L4027,2436.57762 L4210.98323,2436.57762 L4210.98504,2408 Z" id="Path-Copy-9" fill="#0A4455" transform="translate(4159.492519, 2467.000000) rotate(-180.000000) translate(-4159.492519, -2467.000000) "></path>
            <path d="M3505.98504,2408 L3586.98504,2467 L3505.98504,2526 L3505.98496,2500.03213 L3499.57339,2500.03213 C3397,2499.78149 3457.816,2500.03213 3322,2500.03213 L3322,2436.57762 L3505.98323,2436.57762 L3505.98504,2408 Z" id="Path-Copy-10" fill="#325D79" transform="translate(3454.492519, 2467.000000) rotate(-180.000000) translate(-3454.492519, -2467.000000) "></path>
            <path d="M3054.47756,2027 L3135.47756,2086 L3054.47756,2145 L3054.47748,2119.03213 L3048.06591,2119.03213 C2945.49252,2118.78149 3006.30852,2119.03213 2870.49252,2119.03213 L2870.49252,2055.57762 L3054.47575,2055.57762 L3054.47756,2027 Z" id="Path-Copy-4" fill="#D4E8FF" transform="translate(3002.985038, 2086.000000) rotate(-90.000000) translate(-3002.985038, -2086.000000) "></path>
        </g>
    </g>
</svg>